<svg width="97" height="97" viewBox="0 0 97 97" fill="none" xmlns="http://www.w3.org/2000/svg">
<g filter="url(#filter0_b_1622_10419)">
<path fill-rule="evenodd" clip-rule="evenodd" d="M39.1107 9.14756C46.4436 7.41645 52.1916 6.05949 56.8686 5.47702C61.6414 4.88261 65.6594 5.03984 69.4311 6.61893C71.7144 7.57489 73.8331 8.8843 75.7093 10.4991C78.8085 13.1664 80.746 16.6899 82.3488 21.2246C83.9194 25.6682 85.2764 31.4165 87.0074 38.7493L87.0928 39.1111C88.8239 46.4438 90.1808 52.1918 90.7633 56.8687C91.3577 61.6415 91.2004 65.6595 89.6214 69.4312C88.6654 71.7145 87.356 73.8332 85.7412 75.7094C83.0739 78.8085 79.5504 80.7461 75.0157 82.3489C70.572 83.9195 64.8238 85.2764 57.491 87.0074L57.1292 87.0929C49.7964 88.8239 44.0485 90.1809 39.3716 90.7633C34.5988 91.3577 30.5808 91.2005 26.8091 89.6214C24.5258 88.6655 22.4071 87.356 20.5309 85.7413C17.4318 83.074 15.4942 79.5505 13.8914 75.0157C12.3208 70.572 10.9639 64.824 9.23281 57.491L9.1475 57.1296C7.41639 49.7967 6.05942 44.0486 5.47695 39.3717C4.88254 34.5989 5.03978 30.5809 6.61886 26.8092C7.57482 24.5258 8.88423 22.4072 10.499 20.531C13.1663 17.4318 16.6898 15.4943 21.2245 13.8915C25.6682 12.3208 31.4163 10.9639 38.7492 9.23288L39.1107 9.14756Z" fill="#6516D3"/>
<path fill-rule="evenodd" clip-rule="evenodd" d="M39.1107 9.14756C46.4436 7.41645 52.1916 6.05949 56.8686 5.47702C61.6414 4.88261 65.6594 5.03984 69.4311 6.61893C71.7144 7.57489 73.8331 8.8843 75.7093 10.4991C78.8085 13.1664 80.746 16.6899 82.3488 21.2246C83.9194 25.6682 85.2764 31.4165 87.0074 38.7493L87.0928 39.1111C88.8239 46.4438 90.1808 52.1918 90.7633 56.8687C91.3577 61.6415 91.2004 65.6595 89.6214 69.4312C88.6654 71.7145 87.356 73.8332 85.7412 75.7094C83.0739 78.8085 79.5504 80.7461 75.0157 82.3489C70.572 83.9195 64.8238 85.2764 57.491 87.0074L57.1292 87.0929C49.7964 88.8239 44.0485 90.1809 39.3716 90.7633C34.5988 91.3577 30.5808 91.2005 26.8091 89.6214C24.5258 88.6655 22.4071 87.356 20.5309 85.7413C17.4318 83.074 15.4942 79.5505 13.8914 75.0157C12.3208 70.572 10.9639 64.824 9.23281 57.491L9.1475 57.1296C7.41639 49.7967 6.05942 44.0486 5.47695 39.3717C4.88254 34.5989 5.03978 30.5809 6.61886 26.8092C7.57482 24.5258 8.88423 22.4072 10.499 20.531C13.1663 17.4318 16.6898 15.4943 21.2245 13.8915C25.6682 12.3208 31.4163 10.9639 38.7492 9.23288L39.1107 9.14756Z" stroke="url(#paint0_linear_1622_10419)" stroke-linecap="round"/>
</g>
<g filter="url(#filter1_d_1622_10419)">
<path fill-rule="evenodd" clip-rule="evenodd" d="M46.4018 27.4493C46.0114 25.7955 44.3541 24.7712 42.7002 25.1617C41.0464 25.5521 40.0221 27.2093 40.4126 28.8632L49.8384 68.7914C50.2288 70.4452 51.886 71.4695 53.5399 71.079C55.1938 70.6886 56.218 69.0314 55.8276 67.3775L46.4018 27.4493ZM66.1434 39.6503C65.7529 37.9964 64.0957 36.9722 62.4418 37.3626C60.7879 37.753 59.7637 39.4103 60.1542 41.0642L65.8096 65.021C66.2001 66.6749 67.8573 67.6992 69.5112 67.3087C71.165 66.9183 72.1893 65.2611 71.7989 63.6072L66.1434 39.6503ZM36.086 55.1766C35.6956 53.5227 34.0383 52.4984 32.3845 52.8889C30.7306 53.2793 29.7064 54.9365 30.0968 56.5904L33.8671 72.5617C34.2575 74.2156 35.9148 75.2398 37.5687 74.8494C39.2225 74.4589 40.2468 72.8017 39.8563 71.1478L36.086 55.1766Z" fill="url(#paint1_linear_1622_10419)"/>
</g>
<defs>
<filter id="filter0_b_1622_10419" x="-19.3418" y="-19.3423" width="134.924" height="134.925" filterUnits="userSpaceOnUse" color-interpolation-filters="sRGB">
<feFlood flood-opacity="0" result="BackgroundImageFix"/>
<feGaussianBlur in="BackgroundImageFix" stdDeviation="12"/>
<feComposite in2="SourceAlpha" operator="in" result="effect1_backgroundBlur_1622_10419"/>
<feBlend mode="normal" in="SourceGraphic" in2="effect1_backgroundBlur_1622_10419" result="shape"/>
</filter>
<filter id="filter1_d_1622_10419" x="27.0137" y="22.0787" width="57.8691" height="65.8537" filterUnits="userSpaceOnUse" color-interpolation-filters="sRGB">
<feFlood flood-opacity="0" result="BackgroundImageFix"/>
<feColorMatrix in="SourceAlpha" type="matrix" values="0 0 0 0 0 0 0 0 0 0 0 0 0 0 0 0 0 0 127 0" result="hardAlpha"/>
<feOffset dx="5" dy="5"/>
<feGaussianBlur stdDeviation="4"/>
<feColorMatrix type="matrix" values="0 0 0 0 0.176471 0 0 0 0 0.556863 0 0 0 0 0.678431 0 0 0 0.5 0"/>
<feBlend mode="normal" in2="BackgroundImageFix" result="effect1_dropShadow_1622_10419"/>
<feBlend mode="normal" in="SourceGraphic" in2="effect1_dropShadow_1622_10419" result="shape"/>
</filter>
<linearGradient id="paint0_linear_1622_10419" x1="0" y1="18.3804" x2="96.2703" y2="77.8112" gradientUnits="userSpaceOnUse">
<stop stop-color="white" stop-opacity="0.25"/>
<stop offset="1" stop-color="white" stop-opacity="0"/>
</linearGradient>
<linearGradient id="paint1_linear_1622_10419" x1="56.1686" y1="80.786" x2="106.317" y2="15.9435" gradientUnits="userSpaceOnUse">
<stop stop-color="white"/>
<stop offset="1" stop-color="white" stop-opacity="0.2"/>
</linearGradient>
</defs>
</svg>
