<svg width="103" height="103" viewBox="0 0 103 103" fill="none" xmlns="http://www.w3.org/2000/svg">
<rect x="32.9902" y="30.6661" width="44.5615" height="34.1526" rx="5" transform="rotate(20.5536 32.9902 30.6661)" fill="white"/>
<g clip-path="url(#clip0_1764_9255)">
<path fill-rule="evenodd" clip-rule="evenodd" d="M21.9235 44.1427C17.654 55.89 15.5193 61.7637 17.0144 66.9686C17.4972 68.6495 18.2416 70.244 19.2203 71.6935C22.2506 76.1816 28.1242 78.3163 39.8715 82.5858C51.6188 86.8553 57.4925 88.99 62.6973 87.4949C64.3783 87.0121 65.9728 86.2677 67.4223 85.289C71.9104 82.2587 74.0451 76.3851 78.3146 64.6378L80.5918 58.3721C81.547 55.7438 82.3954 53.4096 83.1202 51.311L82.9005 51.2312C80.2312 50.2613 78.6052 49.6705 77.2835 48.9386C70.0192 44.9164 66.1711 36.674 67.7517 28.5223C68.0393 27.0391 68.6303 25.4132 69.6006 22.7441L69.6805 22.5244C67.6063 21.7326 65.2721 20.8843 62.6438 19.929C50.8965 15.6595 45.0228 13.5248 39.818 15.0199C38.137 15.5027 36.5425 16.2471 35.0931 17.2258C30.605 20.2561 28.4702 26.1298 24.2007 37.8771L21.9235 44.1427ZM57.0231 42.7129C57.4948 41.4152 56.8251 39.9809 55.5275 39.5093C54.2298 39.0376 52.7955 39.7073 52.3239 41.0049L44.4262 62.735C44.3943 62.6841 44.3619 62.6316 44.3291 62.5775C43.6134 61.3985 42.8506 59.7545 41.7201 57.3047L38.9468 51.2946C38.3683 50.0409 36.883 49.4936 35.6293 50.0721C34.3757 50.6506 33.8283 52.1359 34.4068 53.3896L37.2407 59.5307C38.2949 61.8155 39.1742 63.7211 40.055 65.1721C40.9788 66.6939 42.0602 67.9891 43.6532 68.8091C44.3387 69.162 45.066 69.4263 45.818 69.5959C47.5658 69.9901 49.2265 69.6915 50.9119 69.1179C52.5187 68.5711 54.4162 67.6748 56.6914 66.6001L62.8072 63.7115C64.0557 63.1218 64.5897 61.6317 64.0001 60.3833C63.4104 59.1348 61.9203 58.6008 60.6718 59.1904L54.6867 62.0173C52.2471 63.1696 50.6067 63.9402 49.301 64.3845C49.2411 64.4049 49.1826 64.4244 49.1255 64.4429L57.0231 42.7129Z" fill="url(#paint0_linear_1764_9255)"/>
<path d="M79.7055 44.5644C80.616 45.0686 81.8051 45.5126 84.6569 46.5495C86.0003 41.9319 86.3846 38.6223 85.501 35.5463C85.0181 33.8653 84.2737 32.2708 83.295 30.8214C81.5041 28.1689 78.7202 26.3385 74.3175 24.4035C73.2814 27.2556 72.8584 28.4523 72.6602 29.4741C71.492 35.4992 74.3362 41.5914 79.7055 44.5644Z" fill="url(#paint1_linear_1764_9255)"/>
</g>
<defs>
<linearGradient id="paint0_linear_1764_9255" x1="11.676" y1="72.3383" x2="94.862" y2="40.7802" gradientUnits="userSpaceOnUse">
<stop stop-color="#207894"/>
<stop offset="1" stop-color="#ED0004"/>
</linearGradient>
<linearGradient id="paint1_linear_1764_9255" x1="11.676" y1="72.3383" x2="94.862" y2="40.7802" gradientUnits="userSpaceOnUse">
<stop stop-color="#207894"/>
<stop offset="1" stop-color="#ED0004"/>
</linearGradient>
<clipPath id="clip0_1764_9255">
<rect width="80" height="80" fill="white" transform="translate(27.3271) rotate(19.9734)"/>
</clipPath>
</defs>
</svg>
