<svg width="885" height="885" viewBox="0 0 885 885" fill="none" xmlns="http://www.w3.org/2000/svg">
    <g filter="url(#filter0_d_273_1655)">
        <path fill-rule="evenodd" clip-rule="evenodd"
            d="M742.825 131.824H520.393L550.249 161.68H742.825V131.824Z" fill="#24702F" />
        <path fill-rule="evenodd" clip-rule="evenodd"
            d="M448.777 10L559.465 120.688H509.257L448.777 60.208L347.305 161.68H314.569V238.096L267.529 275.92H203.881V131.824H326.953L448.777 10ZM240.457 161.68H277.129V228.4L240.457 251.92V161.68Z"
            fill="#24702F" />
        <path fill-rule="evenodd" clip-rule="evenodd"
            d="M742.825 131.824H520.393L550.249 161.68H742.825V131.824Z" fill="#24702F" />
        <path fill-rule="evenodd" clip-rule="evenodd"
            d="M154.729 131.824V354.256L184.681 324.4V131.824H154.729Z" fill="#24702F" />
        <path fill-rule="evenodd" clip-rule="evenodd"
            d="M33 425.776L143.688 315.088V365.296L83.208 425.776L184.68 527.248V560.08H261L298.92 607.12V670.672H154.728V547.6L33 425.776ZM184.68 634.096V597.424H251.4L274.92 634.096H184.68Z"
            fill="#24702F" />
        <path fill-rule="evenodd" clip-rule="evenodd"
            d="M154.729 719.824H377.161L347.305 689.968H154.729V719.824Z" fill="#24702F" />
        <path fill-rule="evenodd" clip-rule="evenodd"
            d="M864.553 425.776L753.865 536.464V486.352L814.345 425.776L712.873 324.4V291.568H636.553L598.633 244.528V180.976H742.825V304.048L864.553 425.776ZM712.873 217.456V254.128H646.153L622.633 217.456H712.873Z"
            fill="#24702F" />
        <path fill-rule="evenodd" clip-rule="evenodd"
            d="M448.776 841.552L338.088 730.864H388.296L448.776 791.44L550.248 689.968H582.984V613.552L630.024 575.632H693.672V719.824H570.6L448.776 841.552ZM657.096 689.968H620.424V623.152L657.096 599.632V689.968Z"
            fill="#24702F" />
        <path fill-rule="evenodd" clip-rule="evenodd"
            d="M742.823 719.824V497.392L712.871 527.248V719.824H742.823Z" fill="#24702F" />
        <path fill-rule="evenodd" clip-rule="evenodd"
            d="M399.816 136.528L431.88 104.368V247.696H465.672V104.368L497.832 136.528V247.408L466.152 276.4H431.4L399.816 247.408V136.528Z"
            fill="#24702F" />
        <path fill-rule="evenodd" clip-rule="evenodd"
            d="M564.072 180.977H531.336V207.857H564.072V180.977ZM682.44 321.233L710.856 349.553H617.64V321.233H682.44ZM531.336 281.777V258.737H559.272V291.569H573.96V258.737L606.408 300.401V349.553H573.96V315.377H559.272L531.336 281.777ZM564.072 221.297H531.336V248.177H564.072V221.297Z"
            fill="#24702F" />
        <path fill-rule="evenodd" clip-rule="evenodd"
            d="M205.129 309.328V342.064H232.009V309.328H205.129ZM345.385 190.96L373.801 162.544V255.76H345.385V190.96ZM305.929 342.064H282.889V314.032H315.721V299.44H282.889L324.553 266.992H373.801V299.44H339.529V314.032L305.929 342.064ZM245.449 309.328V342.064H272.329V309.328H245.449Z"
            fill="#24702F" />
        <path fill-rule="evenodd" clip-rule="evenodd"
            d="M497.737 715.12L465.673 747.28V603.952H431.881V747.28L399.721 715.12V604.24L431.401 575.152H466.057L497.737 604.24V715.12Z"
            fill="#24702F" />
        <path fill-rule="evenodd" clip-rule="evenodd"
            d="M159.431 474.832L127.367 442.672H270.695V408.976H127.367L159.431 376.816H270.311L299.399 408.496V443.152L270.311 474.832H159.431Z"
            fill="#24702F" />
        <path fill-rule="evenodd" clip-rule="evenodd"
            d="M738.12 474.736L770.28 442.672H626.952V408.88H770.28L738.12 376.72H627.24L598.248 408.4V443.056L627.24 474.736H738.12Z"
            fill="#24702F" />
        <path fill-rule="evenodd" clip-rule="evenodd"
            d="M333.479 670.672H366.215V643.792H333.479V670.672ZM215.015 530.416L186.695 502H279.815V530.416H215.015ZM366.215 569.872V592.912H338.183V560.08H323.591V592.912L291.143 551.248V502H323.591V536.272H338.183L366.215 569.872ZM333.479 630.352H366.215V603.472H333.479V630.352Z"
            fill="#24702F" />
        <path fill-rule="evenodd" clip-rule="evenodd"
            d="M692.424 542.224V509.584H665.544V542.224H692.424ZM552.168 660.688L523.752 689.104V595.888H552.168V660.688ZM591.624 509.584H614.664V537.52H581.832V552.208H614.664L573 584.56H523.752V552.208H558.024V537.52L591.624 509.584ZM652.104 542.224V509.584H625.224V542.224H652.104Z"
            fill="#24702F" />
    </g>
    <path
        d="M407.015 382.096H407.111C435.047 354.064 464.999 333.232 490.727 322.096C517.127 310.768 539.303 309.616 551.111 321.424C562.919 333.232 561.767 355.504 550.439 381.808C539.399 407.536 518.471 437.488 490.535 465.52H490.439C462.503 493.552 432.551 514.384 406.823 525.52C380.423 536.848 358.247 538 346.439 526.192C334.631 514.384 335.783 492.112 347.111 465.808C358.151 440.08 379.079 410.128 407.015 382.096ZM410.375 385.36H410.279C382.727 413.008 362.183 442.384 351.335 467.632C340.775 492.208 339.335 512.56 349.703 522.928C359.975 533.2 380.423 531.856 404.999 521.2C430.247 510.352 459.623 489.904 487.175 462.256H487.271C514.823 434.608 535.367 405.232 546.215 379.984C556.775 355.408 558.215 335.056 547.847 324.688C537.575 314.416 517.127 315.76 492.551 326.32C467.303 337.264 437.927 357.712 410.375 385.36Z"
        fill="#C5D85A" />
    <path
        d="M413.64 388.719C437.352 365.007 462.6 347.439 484.296 338.031C506.568 328.527 525.192 327.567 535.08 337.455C545.064 347.343 544.104 366.063 534.504 388.239C525.192 409.935 507.528 435.279 483.912 458.895C460.2 482.607 434.952 500.175 413.256 509.583C390.984 519.087 372.36 520.047 362.472 510.159C352.488 500.271 353.448 481.551 363.048 459.375C372.36 437.583 390.024 412.335 413.64 388.719ZM416.136 391.119C392.808 414.543 375.432 439.407 366.216 460.719C357.192 481.551 356.04 498.927 364.872 507.663C373.704 516.495 390.984 515.343 411.816 506.319C433.224 497.199 458.088 479.823 481.416 456.495C504.744 433.071 522.12 408.207 531.336 386.895C540.36 366.063 541.512 348.687 532.68 339.951C523.848 331.119 506.568 332.271 485.736 341.295C464.328 350.415 439.464 367.791 416.136 391.119Z"
        fill="#C5D85A" />
    <path
        d="M419.496 394.48C439.368 374.704 460.584 359.92 478.728 352.048C497.352 344.08 512.904 343.216 521.16 351.472C529.32 359.728 528.552 375.28 520.584 393.808C512.712 412.048 497.928 433.264 478.056 453.04V453.136C458.184 472.912 436.968 487.696 418.824 495.568C400.2 503.536 384.648 504.4 376.392 496.144C368.232 487.888 369 472.336 376.968 453.808C384.84 435.568 399.624 414.352 419.496 394.48ZM421.128 396.112C401.448 415.792 386.856 436.72 379.08 454.672C371.496 472.336 370.536 487.024 378.024 494.512C385.512 502 400.2 501.04 417.864 493.456C435.816 485.68 456.744 471.088 476.424 451.408C496.104 431.824 510.696 410.896 518.472 392.944C526.056 375.28 527.016 360.592 519.528 353.104C512.04 345.616 497.352 346.576 479.688 354.16C461.736 361.936 440.808 376.528 421.128 396.112Z"
        fill="#C5D85A" />
    <path
        d="M425.736 400.816C441.48 385.072 458.28 373.36 472.68 367.12C487.272 360.88 499.56 360.208 505.992 366.64C512.424 373.072 511.752 385.264 505.416 399.856C499.176 414.256 487.464 431.056 471.816 446.8C456.072 462.544 439.272 474.256 424.872 480.496C410.28 486.736 397.992 487.408 391.56 480.976C385.128 474.544 385.8 462.352 392.136 447.76C398.376 433.36 410.088 416.56 425.736 400.816ZM473.16 368.176C458.856 374.416 442.248 386.032 426.6 401.584C410.952 417.232 399.336 433.936 393.192 448.24C387.144 462.352 386.376 474.064 392.424 480.208C398.472 486.256 410.28 485.488 424.392 479.344C438.696 473.2 455.304 461.584 470.952 446.032C486.6 430.384 498.216 413.68 504.36 399.376C510.408 385.264 511.176 373.456 505.128 367.408C499.08 361.36 487.272 362.128 473.16 368.176Z"
        fill="#C5D85A" />
    <path
        d="M430.823 405.807C443.111 393.615 456.167 384.495 467.399 379.599C478.823 374.703 488.327 374.223 493.415 379.215C498.407 384.207 497.831 393.711 492.935 405.135C488.135 416.367 479.015 429.519 466.727 441.711C454.439 453.999 441.383 463.119 430.151 468.015C418.727 472.911 409.223 473.391 404.135 468.399C399.143 463.407 399.719 453.807 404.615 442.479C409.415 431.247 418.535 418.095 430.823 405.807ZM467.783 380.463C456.647 385.263 443.687 394.287 431.495 406.479C419.303 418.671 410.183 431.727 405.383 442.863C400.679 453.903 400.103 463.023 404.807 467.727C409.511 472.431 418.727 471.855 429.767 467.151C440.903 462.351 453.863 453.327 466.055 441.135C478.247 428.943 487.367 415.887 492.167 404.751C496.871 393.711 497.447 384.591 492.743 379.887C488.039 375.087 478.823 375.663 467.783 380.463Z"
        fill="#C5D85A" />
    <path
        d="M436.679 411.664C444.935 403.312 453.863 397.168 461.447 393.808C469.223 390.544 475.655 390.16 479.015 393.52C482.375 396.976 482.087 403.408 478.727 411.088C475.463 418.768 469.223 427.6 460.871 435.952C452.615 444.304 443.687 450.448 436.103 453.712C428.327 457.072 421.895 457.456 418.535 454.096C415.175 450.64 415.463 444.208 418.823 436.528C422.087 428.848 428.327 420.016 436.679 411.664ZM461.639 394.288C454.055 397.552 445.223 403.696 436.967 411.952C428.711 420.304 422.471 429.136 419.207 436.72C416.039 444.208 415.655 450.448 418.823 453.712C422.087 456.976 428.327 456.592 435.911 453.328C443.495 450.064 452.327 443.92 460.583 435.568C468.839 427.312 475.079 418.48 478.343 410.896C481.511 403.408 481.895 397.072 478.727 393.904C475.463 390.64 469.223 391.024 461.639 394.288Z"
        fill="#C5D85A" />
    <path
        d="M440.712 415.791C446.184 410.319 452.04 406.191 457.128 404.079C462.216 401.871 466.44 401.679 468.648 403.887C470.952 406.095 470.664 410.415 468.552 415.503C466.344 420.495 462.312 426.351 456.84 431.823C451.368 437.295 445.512 441.327 440.424 443.535C435.336 445.743 431.112 445.935 428.904 443.727C426.6 441.423 426.888 437.199 429 432.111C431.208 427.119 435.24 421.263 440.712 415.791ZM457.224 404.463C452.328 406.671 446.472 410.703 441.096 416.079C435.624 421.551 431.592 427.311 429.48 432.303C427.368 437.199 427.08 441.327 429.192 443.343C431.304 445.455 435.336 445.263 440.328 443.151C445.224 440.943 451.08 436.911 456.456 431.535C461.928 426.063 465.96 420.303 468.072 415.311C470.184 410.415 470.472 406.287 468.36 404.175C466.248 402.159 462.216 402.351 457.224 404.463Z"
        fill="#C5D85A" />
    <path
        d="M444.167 419.152C447.239 415.984 450.695 413.68 453.575 412.432C456.455 411.184 458.951 410.992 460.295 412.336C461.543 413.584 461.447 416.08 460.199 419.056C458.951 421.936 456.551 425.296 453.383 428.464C450.311 431.632 446.855 433.936 443.975 435.184C441.095 436.432 438.599 436.624 437.255 435.28C436.007 433.936 436.103 431.536 437.351 428.56C438.599 425.68 440.999 422.32 444.167 419.152ZM453.671 412.72C450.791 413.968 447.527 416.272 444.359 419.44C441.287 422.512 438.983 425.872 437.735 428.752C436.487 431.536 436.391 433.84 437.543 434.992C438.695 436.24 441.095 436.048 443.879 434.896C446.759 433.648 450.023 431.344 453.191 428.176C456.263 425.104 458.567 421.744 459.815 418.864C461.063 416.08 461.159 413.776 460.007 412.528C458.855 411.376 456.455 411.568 453.671 412.72Z"
        fill="#C5D85A" />
    <path
        d="M490.535 382.096H490.439C462.503 354.064 432.551 333.232 406.823 322.096C380.423 310.768 358.247 309.616 346.439 321.424C334.631 333.232 335.783 355.504 347.111 381.808C358.151 407.536 379.079 437.488 407.015 465.52H407.111C435.047 493.552 464.999 514.384 490.727 525.52C517.127 536.848 539.303 538 551.111 526.192C562.919 514.384 561.767 492.112 550.439 465.808C539.399 440.08 518.471 410.128 490.535 382.096ZM487.175 385.36H487.271C514.823 413.008 535.367 442.384 546.215 467.632C556.775 492.208 558.215 512.56 547.847 522.928C537.575 533.2 517.127 531.856 492.551 521.2C467.303 510.352 437.927 489.904 410.375 462.256H410.279C382.727 434.608 362.183 405.232 351.335 379.984C340.775 355.408 339.335 335.056 349.703 324.688C359.975 314.416 380.423 315.76 404.999 326.32C430.247 337.264 459.623 357.712 487.175 385.36Z"
        fill="#C5D85A" />
    <path
        d="M483.912 388.719C460.2 365.007 434.952 347.439 413.256 338.031C390.984 328.527 372.36 327.567 362.472 337.455C352.488 347.343 353.448 366.063 363.048 388.239C372.36 409.935 390.024 435.279 413.64 458.895C437.352 482.607 462.6 500.175 484.296 509.583C506.568 519.087 525.192 520.047 535.08 510.159C545.064 500.271 544.104 481.551 534.504 459.375C525.192 437.583 507.528 412.335 483.912 388.719ZM481.416 391.119C504.744 414.543 522.12 439.407 531.336 460.719C540.36 481.551 541.512 498.927 532.68 507.663C523.848 516.495 506.568 515.343 485.736 506.319C464.328 497.199 439.464 479.823 416.136 456.495C392.808 433.071 375.432 408.207 366.216 386.895C357.192 366.063 356.04 348.687 364.872 339.951C373.704 331.119 390.984 332.271 411.816 341.295C433.224 350.415 458.088 367.791 481.416 391.119Z"
        fill="#C5D85A" />
    <path
        d="M478.056 394.48C458.184 374.704 436.968 359.92 418.824 352.048C400.2 344.08 384.648 343.216 376.392 351.472C368.232 359.728 369 375.28 376.968 393.808C384.84 412.048 399.624 433.264 419.496 453.04V453.136C439.368 472.912 460.584 487.696 478.728 495.568C497.352 503.536 512.904 504.4 521.16 496.144C529.32 487.888 528.552 472.336 520.584 453.808C512.712 435.568 497.928 414.352 478.056 394.48ZM476.424 396.112C496.104 415.792 510.696 436.72 518.472 454.672C526.056 472.336 527.016 487.024 519.528 494.512C512.04 502 497.352 501.04 479.688 493.456C461.736 485.68 440.808 471.088 421.128 451.408C401.448 431.824 386.856 410.896 379.08 392.944C371.496 375.28 370.536 360.592 378.024 353.104C385.512 345.616 400.2 346.576 417.864 354.16C435.816 361.936 456.744 376.528 476.424 396.112Z"
        fill="#C5D85A" />
    <path
        d="M471.816 400.816C456.072 385.072 439.272 373.36 424.872 367.12C410.28 360.88 397.992 360.208 391.56 366.64C385.128 373.072 385.8 385.264 392.136 399.856C398.376 414.256 410.088 431.056 425.736 446.8C441.48 462.544 458.28 474.256 472.68 480.496C487.272 486.736 499.56 487.408 505.992 480.976C512.424 474.544 511.752 462.352 505.416 447.76C499.176 433.36 487.464 416.56 471.816 400.816ZM424.392 368.176C438.696 374.416 455.304 386.032 470.952 401.584C486.6 417.232 498.216 433.936 504.36 448.24C510.408 462.352 511.176 474.064 505.128 480.208C499.08 486.256 487.272 485.488 473.16 479.344C458.856 473.2 442.248 461.584 426.6 446.032C410.952 430.384 399.336 413.68 393.192 399.376C387.144 385.264 386.376 373.456 392.424 367.408C398.472 361.36 410.28 362.128 424.392 368.176Z"
        fill="#C5D85A" />
    <path
        d="M466.727 405.807C454.439 393.615 441.383 384.495 430.151 379.599C418.727 374.703 409.223 374.223 404.135 379.215C399.143 384.207 399.719 393.711 404.615 405.135C409.415 416.367 418.535 429.519 430.823 441.711C443.111 453.999 456.167 463.119 467.399 468.015C478.823 472.911 488.327 473.391 493.415 468.399C498.407 463.407 497.831 453.807 492.935 442.479C488.135 431.247 479.015 418.095 466.727 405.807ZM429.767 380.463C440.903 385.263 453.863 394.287 466.055 406.479C478.247 418.671 487.367 431.727 492.167 442.863C496.871 453.903 497.447 463.023 492.743 467.727C488.039 472.431 478.823 471.855 467.783 467.151C456.647 462.351 443.687 453.327 431.495 441.135C419.303 428.943 410.183 415.887 405.383 404.751C400.679 393.711 400.103 384.591 404.807 379.887C409.511 375.087 418.727 375.663 429.767 380.463Z"
        fill="#C5D85A" />
    <path
        d="M460.871 411.664C452.615 403.312 443.687 397.168 436.103 393.808C428.327 390.544 421.895 390.16 418.535 393.52C415.175 396.976 415.463 403.408 418.823 411.088C422.087 418.768 428.327 427.6 436.679 435.952C444.935 444.304 453.863 450.448 461.447 453.712C469.223 457.072 475.655 457.456 479.015 454.096C482.375 450.64 482.087 444.208 478.727 436.528C475.463 428.848 469.223 420.016 460.871 411.664ZM435.911 394.288C443.495 397.552 452.327 403.696 460.583 411.952C468.839 420.304 475.079 429.136 478.343 436.72C481.511 444.208 481.895 450.448 478.727 453.712C475.463 456.976 469.223 456.592 461.639 453.328C454.055 450.064 445.223 443.92 436.967 435.568C428.711 427.312 422.471 418.48 419.207 410.896C416.039 403.408 415.655 397.072 418.823 393.904C422.087 390.64 428.327 391.024 435.911 394.288Z"
        fill="#C5D85A" />
    <path
        d="M456.84 415.791C451.368 410.319 445.512 406.191 440.424 404.079C435.336 401.871 431.112 401.679 428.904 403.887C426.6 406.095 426.888 410.415 429 415.503C431.208 420.495 435.24 426.351 440.712 431.823C446.184 437.295 452.04 441.327 457.128 443.535C462.216 445.743 466.44 445.935 468.648 443.727C470.952 441.423 470.664 437.199 468.552 432.111C466.344 427.119 462.312 421.263 456.84 415.791ZM440.328 404.463C445.224 406.671 451.08 410.703 456.456 416.079C461.928 421.551 465.96 427.311 468.072 432.303C470.184 437.199 470.472 441.327 468.36 443.343C466.248 445.455 462.216 445.263 457.224 443.151C452.328 440.943 446.472 436.911 441.096 431.535C435.624 426.063 431.592 420.303 429.48 415.311C427.368 410.415 427.08 406.287 429.192 404.175C431.304 402.159 435.336 402.351 440.328 404.463Z"
        fill="#C5D85A" />
    <path
        d="M453.383 419.152C450.311 415.984 446.855 413.68 443.975 412.432C441.095 411.184 438.599 410.992 437.255 412.336C436.007 413.584 436.103 416.08 437.351 419.056C438.599 421.936 440.999 425.296 444.167 428.464C447.239 431.632 450.695 433.936 453.575 435.184C456.455 436.432 458.951 436.624 460.295 435.28C461.543 433.936 461.447 431.536 460.199 428.56C458.951 425.68 456.551 422.32 453.383 419.152ZM443.879 412.72C446.759 413.968 450.023 416.272 453.191 419.44C456.263 422.512 458.567 425.872 459.815 428.752C461.063 431.536 461.159 433.84 460.007 434.992C458.855 436.24 456.455 436.048 453.671 434.896C450.791 433.648 447.527 431.344 444.359 428.176C441.287 425.104 438.983 421.744 437.735 418.864C436.487 416.08 436.391 413.776 437.543 412.528C438.695 411.376 441.095 411.568 443.879 412.72Z"
        fill="#C5D85A" />
    <path fill-rule="evenodd" clip-rule="evenodd"
        d="M450.887 304.72V542.8C454.343 543.76 456.839 546.928 456.839 550.672C456.839 555.088 453.287 558.736 448.775 558.736C444.263 558.736 440.711 555.088 440.711 550.672C440.711 546.928 443.207 543.76 446.663 542.8V304.72C443.207 303.856 440.711 300.688 440.711 296.944C440.711 292.528 444.263 288.88 448.775 288.88C453.287 288.88 456.839 292.528 456.839 296.944C456.839 300.688 454.343 303.856 450.887 304.72Z"
        fill="#C5D85A" />
    <path
        d="M552.277 382.597C558.002 369.303 561.215 356.898 561.451 346.224C561.687 335.54 558.934 326.418 552.526 320.01C546.118 313.602 537.021 310.848 526.347 311.084C515.685 311.32 503.28 314.533 489.939 320.258L489.933 320.26C464.105 331.44 434.188 352.222 406.282 380.096H406.185L405.599 380.684C377.533 408.846 356.438 439.001 345.274 465.017C339.549 478.312 336.335 490.718 336.1 501.392C335.864 512.076 338.617 521.198 345.025 527.606C351.432 534.013 360.53 536.767 371.204 536.531C381.866 536.296 394.271 533.082 407.612 527.358L407.618 527.355C433.446 516.176 463.363 495.393 491.269 467.52H491.366L491.952 466.932C520.018 438.769 541.114 408.613 552.277 382.597ZM552.277 382.597C552.277 382.597 552.277 382.597 552.277 382.596L550.439 381.808L552.276 382.599C552.277 382.598 552.277 382.598 552.277 382.597ZM353.173 468.421C363.821 443.639 383.984 414.705 411.111 387.36H411.206L411.792 386.772C439.207 359.261 468.379 338.978 493.345 328.156C505.498 322.934 516.503 320.049 525.642 319.69C534.787 319.331 541.831 321.5 546.433 326.102C551.085 330.754 553.252 337.799 552.881 346.927C552.51 356.053 549.602 367.036 544.378 379.194L546.215 379.984L544.378 379.194C533.73 403.976 513.567 432.911 486.44 460.256H486.345L485.759 460.844C458.342 488.356 429.172 508.637 404.21 519.362L404.204 519.365C392.05 524.635 381.045 527.543 371.906 527.913C362.763 528.284 355.719 526.115 351.118 521.514C346.466 516.862 344.299 509.816 344.67 500.689C345.04 491.562 347.949 480.58 353.173 468.421L351.335 467.632L353.173 468.421Z"
        fill="#C5D85A" stroke="#957336" stroke-width="4" />
    <path
        d="M483.511 336.192L483.5 336.196C461.523 345.726 436.072 363.458 412.225 387.305C388.479 411.052 370.647 436.504 361.21 458.586C356.349 469.815 353.616 480.3 353.416 489.331C353.216 498.373 355.562 506.129 361.061 511.578C366.51 517.023 374.238 519.343 383.264 519.143C392.281 518.943 402.765 516.234 414.041 511.423L414.051 511.418C436.028 501.889 461.479 484.156 485.326 460.31C509.075 436.561 526.905 411.013 536.34 389.03C541.201 377.801 543.935 367.315 544.135 358.284C544.335 349.242 541.989 341.486 536.491 336.038C531.043 330.592 523.313 328.272 514.287 328.472C505.27 328.671 494.786 331.38 483.511 336.192ZM368.051 461.514L368.051 461.513C377.144 440.486 394.354 415.826 417.551 392.533C440.747 369.336 465.404 352.131 486.519 343.135L486.531 343.131C496.814 338.676 506.089 336.225 513.785 335.926C521.48 335.627 527.378 337.478 531.265 341.366L531.273 341.373C535.15 345.208 537.004 351.098 536.705 358.81C536.406 366.518 533.954 375.818 529.5 386.1L529.5 386.102C520.407 407.128 503.198 431.789 480 455.082C456.804 478.278 432.147 495.484 411.032 504.479L411.021 504.484C400.737 508.939 391.462 511.39 383.766 511.689C376.071 511.988 370.173 510.136 366.286 506.249L366.278 506.241C362.401 502.406 360.547 496.516 360.846 488.805C361.145 481.096 363.597 471.796 368.051 461.514Z"
        fill="#C5D85A" stroke="#957336" stroke-width="4" />
    <path
        d="M418.085 393.062L418.081 393.066C398.075 413.072 383.126 434.492 375.131 453.016L375.13 453.018C371.085 462.425 368.808 471.205 368.632 478.782C368.456 486.367 370.391 492.918 374.969 497.55L374.977 497.558C379.612 502.193 386.17 504.128 393.769 503.939C401.357 503.751 410.161 501.45 419.61 497.407L419.62 497.403C438.044 489.409 459.462 474.461 479.466 454.554L480.056 453.967V453.869C499.769 434.124 514.504 412.942 522.42 394.601L522.421 394.598C526.466 385.191 528.743 376.411 528.919 368.834C529.095 361.249 527.161 354.699 522.582 350.066L522.574 350.058C517.939 345.423 511.381 343.488 503.782 343.677C496.194 343.865 487.39 346.166 477.941 350.209L477.932 350.213C459.507 358.207 438.089 373.155 418.085 393.062ZM475.013 449.99L475.009 449.994C455.463 469.54 434.738 483.967 417.069 491.621C408.372 495.354 400.538 497.398 394.054 497.637C387.568 497.877 382.653 496.313 379.438 493.098C376.222 489.882 374.658 484.968 374.898 478.482C375.138 471.997 377.182 464.161 380.916 455.463C388.57 437.795 402.996 417.072 422.541 397.527C442.087 378.077 462.811 363.651 480.479 355.997C489.177 352.263 497.013 350.218 503.497 349.979C509.983 349.739 514.898 351.303 518.113 354.518C521.329 357.734 522.893 362.648 522.653 369.134C522.413 375.618 520.37 383.453 516.636 392.149C508.983 409.818 494.556 430.542 475.013 449.99Z"
        fill="#C5D85A" stroke="#957336" stroke-width="4" />
    <path
        d="M424.322 399.402L424.318 399.406C408.539 415.281 396.664 432.282 390.302 446.963C387.073 454.399 385.226 461.355 385.061 467.373C384.895 473.4 386.421 478.665 390.146 482.39C393.873 486.117 399.162 487.64 405.207 487.487C411.245 487.335 418.223 485.515 425.659 482.335L425.667 482.331C440.35 475.969 457.353 464.092 473.23 448.214L473.235 448.21C489.013 432.335 500.889 415.333 507.251 400.652C510.48 393.216 512.326 386.26 512.491 380.243C512.657 374.216 511.132 368.951 507.406 365.226C503.679 361.499 498.39 359.976 492.346 360.129C486.308 360.281 479.33 362.101 471.894 365.281L471.885 365.285C457.203 371.647 440.2 383.524 424.322 399.402ZM502.523 398.587C496.502 412.604 485.053 429.103 469.54 444.616C454.022 460.038 437.618 471.486 423.603 477.506L423.594 477.51C416.674 480.523 410.448 482.158 405.31 482.349C400.177 482.541 396.342 481.293 393.844 478.799C391.336 476.247 390.091 472.401 390.271 467.282C390.451 462.155 392.063 455.952 395.03 449.028C401.051 435.011 412.5 418.513 428.013 403C443.527 387.581 459.932 376.13 473.954 370.012C480.873 367.047 487.099 365.435 492.238 365.255C497.378 365.074 501.216 366.324 503.714 368.822C506.212 371.32 507.462 375.158 507.281 380.298C507.101 385.438 505.489 391.665 502.523 398.587Z"
        fill="#C5D85A" stroke="#957336" stroke-width="4" />
    <path
        d="M429.414 404.388L429.409 404.393C416.986 416.815 407.7 430.172 402.777 441.69C400.27 447.492 398.81 452.98 398.668 457.756C398.526 462.537 399.708 466.801 402.721 469.814L402.727 469.82L402.734 469.827C405.782 472.817 410.025 474.031 414.815 473.915C419.595 473.799 425.086 472.362 430.939 469.854L430.95 469.849C442.462 464.831 455.719 455.548 468.139 443.127C480.566 430.797 489.852 417.439 494.774 405.921C497.279 400.075 498.74 394.588 498.882 389.823C499.024 385.049 497.839 380.812 494.829 377.801L494.822 377.795L494.815 377.788C491.768 374.798 487.524 373.584 482.734 373.7C477.955 373.816 472.463 375.253 466.611 377.761L466.6 377.766C455.088 382.784 441.832 392.066 429.414 404.388ZM407.221 443.651C411.898 432.802 420.851 419.952 432.909 407.894C444.967 395.835 457.723 386.977 468.574 382.3L468.58 382.298C473.964 379.957 478.772 378.707 482.706 378.574C486.637 378.442 489.486 379.421 491.314 381.287L491.321 381.295L491.329 381.302C493.157 383.131 494.117 385.963 493.984 389.876C493.851 393.791 492.623 398.577 490.328 403.964C485.651 414.813 476.699 427.663 464.641 439.721C452.584 451.778 439.83 460.635 428.98 465.313C423.595 467.607 418.784 468.836 414.843 468.969C410.901 469.101 408.047 468.139 406.221 466.313C404.392 464.484 403.433 461.652 403.566 457.739C403.698 453.824 404.926 449.038 407.221 443.651Z"
        fill="#C5D85A" stroke="#957336" stroke-width="4" />
    <path
        d="M421.046 437.505C424.185 430.216 430.253 421.59 438.385 413.362C446.505 405.243 455.131 399.266 462.43 396.125C466.089 394.55 469.289 393.732 471.869 393.647C474.44 393.562 476.198 394.204 477.313 395.318C478.366 396.371 478.998 398.117 478.912 400.714C478.827 403.303 478.028 406.507 476.503 410.111C473.365 417.401 467.296 426.027 459.169 434.154L459.169 434.154L459.161 434.162C451.043 442.374 442.419 448.35 435.12 451.491C431.461 453.066 428.26 453.884 425.681 453.969C423.118 454.054 421.363 453.417 420.248 452.309C419.174 451.196 418.553 449.432 418.638 446.866C418.723 444.292 419.521 441.113 421.046 437.505ZM435.26 410.254C426.789 418.727 420.378 427.761 416.986 435.736C415.245 439.72 414.24 443.508 414.159 446.848C414.079 450.202 414.935 453.263 417.101 455.49L417.111 455.5L417.121 455.51C419.317 457.707 422.382 458.53 425.727 458.423C429.065 458.316 432.873 457.287 436.896 455.548C444.758 452.164 453.89 445.858 462.289 437.363C470.761 428.89 477.172 419.856 480.563 411.88C482.305 407.897 483.31 404.109 483.39 400.768C483.471 397.415 482.615 394.354 480.449 392.126L480.439 392.116L480.429 392.106C478.233 389.91 475.171 389.087 471.831 389.181C468.498 389.274 464.693 390.277 460.673 391.964L460.655 391.972L460.637 391.98C452.79 395.456 443.662 401.756 435.26 410.254Z"
        fill="#C5D85A" stroke="#957336" stroke-width="4" />
    <path
        d="M463.935 404.77C465.484 404.721 466.418 405.097 466.962 405.606C467.481 406.136 467.86 407.063 467.802 408.624C467.742 410.201 467.234 412.205 466.236 414.519L466.236 414.519L466.23 414.532C464.244 419.227 460.385 424.778 455.042 430.121C449.817 435.346 444.165 439.223 439.527 441.319C437.175 442.312 435.183 442.793 433.629 442.832C432.081 442.871 431.153 442.476 430.606 441.929L430.59 441.913L430.573 441.897C430.082 441.428 429.691 440.551 429.751 438.979C429.81 437.415 430.318 435.411 431.317 433.096L431.317 433.096L431.322 433.083C433.308 428.388 437.168 422.836 442.51 417.494C447.735 412.269 453.387 408.392 458.025 406.296C460.376 405.304 462.373 404.82 463.935 404.77ZM463.919 400.328C461.613 400.384 459.029 401.076 456.347 402.238C450.953 404.48 444.891 408.784 439.298 414.377C433.684 419.991 429.496 426.046 427.171 431.302L427.162 431.323L427.153 431.345C426.045 434.015 425.353 436.598 425.297 438.915C425.24 441.25 425.834 443.485 427.49 445.142C429.101 446.753 431.315 447.343 433.633 447.287C435.943 447.23 438.533 446.536 441.22 445.37C446.581 443.044 452.641 438.851 458.254 433.238C463.868 427.624 468.056 421.569 470.381 416.312L470.39 416.291L470.399 416.27C471.509 413.596 472.199 410.99 472.256 408.664C472.312 406.339 471.73 404.081 470.047 402.458C468.437 400.858 466.23 400.272 463.919 400.328Z"
        fill="#C5D85A" stroke="#957336" stroke-width="4" />
    <path
        d="M445.773 420.854C448.809 417.819 451.864 415.686 454.451 414.562C455.708 414.043 456.761 413.792 457.538 413.758C458.231 413.728 458.497 413.871 458.571 413.924C458.684 414.07 458.834 414.388 458.812 415.054C458.787 415.794 458.546 416.805 457.99 418.046L457.984 418.057L457.98 418.069C456.849 420.678 454.704 423.835 451.776 426.762C448.741 429.798 445.686 431.93 443.099 433.054C441.839 433.574 440.796 433.82 440.033 433.845C439.257 433.871 439.044 433.67 439.012 433.636L438.985 433.606L438.957 433.578C438.903 433.524 438.713 433.283 438.737 432.552C438.762 431.824 439.002 430.813 439.56 429.57L439.565 429.559L439.57 429.547C440.7 426.938 442.846 423.782 445.773 420.854ZM454.808 429.868C458.091 426.582 460.659 423.024 462.034 419.851L462.038 419.841L462.043 419.83C462.728 418.196 463.151 416.572 463.182 415.09C463.213 413.614 462.85 412.064 461.709 410.922C460.525 409.738 458.952 409.366 457.448 409.413C455.956 409.46 454.354 409.915 452.779 410.597C449.646 411.955 445.98 414.412 442.742 417.749C439.459 421.034 436.89 424.593 435.516 427.765L435.511 427.776L435.506 427.787C434.824 429.413 434.398 431.014 434.367 432.49C434.336 433.982 434.712 435.481 435.789 436.641L435.814 436.668L435.84 436.694C437.025 437.878 438.597 438.25 440.101 438.203C441.593 438.157 443.195 437.702 444.77 437.019C447.904 435.661 451.569 433.204 454.808 429.868Z"
        fill="#C5D85A" stroke="#957336" stroke-width="4" />
    <path
        d="M491.952 380.684L491.366 380.096H491.269C463.363 352.222 433.446 331.44 407.618 320.26L407.612 320.258C394.271 314.533 381.866 311.32 371.204 311.084C360.53 310.848 351.432 313.602 345.025 320.01C338.617 326.418 335.864 335.54 336.1 346.224C336.335 356.898 339.549 369.304 345.274 382.599C356.438 408.614 377.533 438.77 405.599 466.932L406.185 467.52H406.282C434.188 495.393 464.105 516.176 489.933 527.355L489.939 527.358C503.28 533.082 515.685 536.296 526.347 536.531C537.021 536.767 546.118 534.013 552.526 527.606C558.934 521.198 561.687 512.076 561.451 501.392C561.215 490.718 558.002 478.313 552.277 465.019C541.114 439.003 520.018 408.847 491.952 380.684ZM485.759 386.772L486.345 387.36H486.44C513.567 414.705 533.73 443.639 544.378 468.421L546.215 467.632L544.378 468.421C549.602 480.58 552.51 491.562 552.881 500.689C553.252 509.816 551.085 516.862 546.433 521.514C541.832 526.115 534.788 528.284 525.644 527.913C516.506 527.543 505.501 524.635 493.347 519.365L493.341 519.362C468.379 508.637 439.209 488.356 411.792 460.844L411.206 460.256H411.111C383.984 432.911 363.821 403.976 353.173 379.194L351.335 379.984L353.173 379.194C347.949 367.036 345.04 356.053 344.67 346.927C344.299 337.799 346.466 330.754 351.118 326.102C355.719 321.5 362.764 319.331 371.909 319.69C381.048 320.049 392.053 322.934 404.207 328.156C429.173 338.978 458.344 359.261 485.759 386.772Z"
        fill="#C5D85A" stroke="#957336" stroke-width="4" />
    <path
        d="M414.051 336.196L414.051 336.196L414.041 336.192C402.765 331.38 392.281 328.671 383.264 328.472C374.238 328.272 366.509 330.592 361.061 336.038C355.562 341.486 353.216 349.242 353.416 358.284C353.616 367.315 356.35 377.801 361.211 389.031C370.646 411.013 388.477 436.561 412.225 460.31C436.072 484.156 461.523 501.889 483.5 511.418L483.511 511.423C494.786 516.234 505.27 518.943 514.287 519.143C523.313 519.343 531.042 517.023 536.49 511.577C541.989 506.129 544.335 498.373 544.135 489.331C543.936 480.3 541.202 469.815 536.341 458.585C526.904 436.504 509.072 411.051 485.326 387.305C461.479 363.458 436.028 345.726 414.051 336.196ZM529.5 461.513L529.5 461.514C533.954 471.796 536.406 481.096 536.705 488.805C537.004 496.516 535.15 502.406 531.273 506.241L531.265 506.249C527.378 510.136 521.48 511.988 513.785 511.689C506.089 511.39 496.814 508.939 486.531 504.484L486.519 504.479C465.404 495.484 440.747 478.278 417.551 455.082C394.354 431.789 377.144 407.128 368.051 386.102L368.051 386.1C363.597 375.818 361.145 366.518 360.846 358.81C360.547 351.098 362.401 345.208 366.278 341.373L366.278 341.373L366.286 341.366C370.173 337.478 376.071 335.627 383.766 335.926C391.462 336.225 400.737 338.676 411.021 343.131L411.021 343.131L411.032 343.135C432.147 352.131 456.804 369.336 480 392.533C503.198 415.826 520.407 440.486 529.5 461.513Z"
        fill="#C5D85A" stroke="#957336" stroke-width="4" />
    <path
        d="M479.47 393.066L479.466 393.062C459.462 373.155 438.044 358.207 419.62 350.213L419.61 350.209C410.161 346.166 401.357 343.865 393.769 343.677C386.17 343.488 379.612 345.423 374.977 350.058L374.977 350.058L374.969 350.066C370.391 354.699 368.456 361.249 368.632 368.834C368.808 376.411 371.085 385.191 375.13 394.598L375.131 394.601C383.047 412.942 397.782 434.124 417.496 453.869V453.967L418.085 454.554C438.089 474.461 459.507 489.409 477.932 497.403L477.941 497.407C487.39 501.45 496.194 503.751 503.782 503.939C511.381 504.128 517.939 502.193 522.574 497.558L522.582 497.55C527.161 492.918 529.095 486.367 528.919 478.782C528.743 471.205 526.466 462.425 522.421 453.018L522.42 453.016C514.425 434.492 499.476 413.072 479.47 393.066ZM422.542 449.994L422.538 449.99C402.996 430.543 388.57 409.82 380.916 392.152C377.182 383.454 375.138 375.619 374.898 369.134C374.658 362.648 376.222 357.734 379.438 354.518C382.653 351.303 387.568 349.739 394.054 349.979C400.538 350.218 408.374 352.262 417.071 355.996C434.74 363.65 455.464 378.076 475.01 397.527C494.556 417.073 508.982 437.797 516.636 455.466C520.369 464.163 522.413 471.998 522.653 478.482C522.893 484.968 521.329 489.882 518.113 493.098C514.898 496.313 509.983 497.877 503.497 497.637C497.013 497.398 489.179 495.354 480.481 491.62C462.812 483.967 442.088 469.54 422.542 449.994Z"
        fill="#C5D85A" stroke="#957336" stroke-width="4" />
    <path
        d="M473.23 399.402L473.235 399.406C489.013 415.281 500.889 432.282 507.251 446.963C510.479 454.399 512.326 461.355 512.491 467.373C512.657 473.4 511.132 478.665 507.406 482.39C503.679 486.117 498.39 487.64 492.346 487.487C486.308 487.335 479.33 485.515 471.894 482.335L471.885 482.331C457.203 475.969 440.2 464.092 424.322 448.214L424.318 448.21C408.539 432.334 396.663 415.333 390.301 400.652L473.23 399.402ZM473.23 399.402C457.353 383.524 440.35 371.647 425.667 365.285L425.659 365.281M473.23 399.402L425.659 365.281M425.659 365.281C418.223 362.101 411.245 360.281 405.207 360.129M425.659 365.281L405.207 360.129M405.207 360.129C399.162 359.976 393.873 361.499 390.146 365.226M405.207 360.129L390.146 365.226M390.146 365.226C386.421 368.951 384.895 374.216 385.061 380.243M390.146 365.226L385.061 380.243M385.061 380.243C385.226 386.26 387.073 393.216 390.301 400.651L385.061 380.243ZM423.598 370.012C437.621 376.13 454.025 387.581 469.54 403C485.053 418.513 496.502 435.011 502.523 449.029C505.489 455.952 507.101 462.155 507.281 467.282C507.461 472.4 506.217 476.247 503.709 478.799C501.211 481.293 497.376 482.541 492.243 482.349C487.105 482.158 480.879 480.523 473.959 477.51L473.95 477.506C459.934 471.486 443.531 460.039 428.013 444.616C412.5 429.104 401.052 412.605 395.03 398.588C392.064 391.666 390.451 385.438 390.271 380.298C390.091 375.158 391.34 371.32 393.838 368.822C396.336 366.324 400.174 365.074 405.314 365.255C410.453 365.435 416.679 367.047 423.598 370.012Z"
        fill="#C5D85A" stroke="#957336" stroke-width="4" />
    <path
        d="M468.141 404.393L468.135 404.388C455.717 392.066 442.461 382.784 430.95 377.766L430.95 377.766L430.939 377.761C425.086 375.253 419.595 373.816 414.815 373.7C410.025 373.584 405.782 374.798 402.734 377.788L402.727 377.795L402.721 377.801C399.71 380.812 398.525 385.049 398.668 389.823C398.81 394.588 400.271 400.076 402.776 405.922C407.698 417.44 416.985 430.798 429.411 443.128C441.831 455.548 455.088 464.831 466.6 469.849L466.611 469.854C472.463 472.362 477.955 473.799 482.734 473.915C487.524 474.031 491.768 472.817 494.815 469.827L494.822 469.82L494.829 469.814C497.842 466.801 499.024 462.537 498.882 457.756C498.74 452.98 497.28 447.492 494.772 441.69C489.85 430.172 480.563 416.815 468.141 404.393ZM468.57 465.313C457.719 460.635 444.966 451.778 432.909 439.721C420.851 427.663 411.898 414.813 407.221 403.964C404.926 398.577 403.698 393.791 403.566 389.876C403.433 385.963 404.392 383.131 406.221 381.302L406.228 381.295L406.235 381.287C408.064 379.421 410.913 378.442 414.843 378.574C418.778 378.707 423.585 379.957 428.969 382.298L428.975 382.3C439.827 386.977 452.582 395.835 464.641 407.894C476.699 419.952 485.651 432.802 490.328 443.651C492.623 449.038 493.851 453.824 493.984 457.739C494.117 461.652 493.157 464.484 491.329 466.313C489.502 468.139 486.648 469.101 482.706 468.969C478.766 468.836 473.954 467.607 468.57 465.313Z"
        fill="#C5D85A" stroke="#957336" stroke-width="4" />
    <path
        d="M435.12 396.125C442.419 399.266 451.045 405.243 459.165 413.363C467.297 421.59 473.365 430.216 476.504 437.505C478.029 441.113 478.827 444.292 478.912 446.866C478.997 449.432 478.375 451.196 477.302 452.309C476.187 453.417 474.432 454.054 471.869 453.969C469.289 453.884 466.089 453.066 462.43 451.491C455.131 448.35 446.506 442.374 438.389 434.162L438.389 434.162L438.381 434.154C430.254 426.027 424.185 417.401 421.046 410.111C419.522 406.507 418.723 403.303 418.638 400.714C418.552 398.117 419.184 396.371 420.237 395.318C421.352 394.204 423.11 393.562 425.681 393.647C428.26 393.732 431.461 394.55 435.12 396.125ZM436.913 391.98L436.895 391.972L436.877 391.964C432.857 390.277 429.052 389.274 425.719 389.181C422.379 389.087 419.317 389.91 417.121 392.106L417.111 392.116L417.101 392.126C414.935 394.354 414.079 397.415 414.159 400.768C414.24 404.109 415.245 407.897 416.986 411.88C420.378 419.856 426.789 428.89 435.261 437.363C443.659 445.858 452.792 452.164 460.654 455.548C464.677 457.287 468.485 458.316 471.823 458.423C475.168 458.53 478.233 457.707 480.429 455.51L480.439 455.5L480.449 455.49C482.615 453.263 483.471 450.202 483.39 446.848C483.31 443.508 482.305 439.72 480.563 435.736C477.172 427.761 470.761 418.727 462.289 410.254C453.888 401.756 444.76 395.456 436.913 391.98Z"
        fill="#C5D85A" stroke="#957336" stroke-width="4" />
    <path
        d="M433.617 404.77C435.179 404.82 437.176 405.304 439.527 406.296C444.165 408.392 449.817 412.269 455.042 417.494C460.385 422.836 464.244 428.388 466.23 433.083L466.23 433.083L466.236 433.096C467.234 435.411 467.742 437.415 467.802 438.979C467.861 440.551 467.47 441.428 466.979 441.897L466.962 441.913L466.946 441.929C466.399 442.476 465.471 442.871 463.923 442.832C462.369 442.793 460.377 442.312 458.025 441.319C453.387 439.223 447.735 435.346 442.51 430.121C437.168 424.778 433.308 419.227 431.322 414.532L431.322 414.532L431.317 414.519C430.318 412.205 429.81 410.201 429.751 408.624C429.692 407.063 430.071 406.136 430.59 405.606C431.134 405.097 432.068 404.721 433.617 404.77ZM427.153 416.27L427.162 416.291L427.171 416.312C429.496 421.569 433.684 427.624 439.298 433.238C444.912 438.851 450.971 443.044 456.332 445.37C459.019 446.536 461.609 447.23 463.919 447.287C466.237 447.343 468.451 446.753 470.062 445.142C471.719 443.485 472.312 441.25 472.256 438.915C472.199 436.598 471.508 434.015 470.399 431.345L470.39 431.323L470.381 431.302C468.056 426.046 463.868 419.991 458.254 414.377C452.661 408.784 446.599 404.48 441.206 402.238C438.523 401.076 435.939 400.384 433.633 400.328C431.322 400.272 429.115 400.858 427.505 402.458C425.822 404.081 425.241 406.339 425.297 408.664C425.353 410.99 426.043 413.596 427.153 416.27Z"
        fill="#C5D85A" stroke="#957336" stroke-width="4" />
    <path
        d="M457.517 433.845C456.754 433.82 455.71 433.574 454.451 433.054C451.864 431.93 448.809 429.798 445.773 426.762C442.846 423.835 440.7 420.678 439.57 418.069L439.565 418.057L439.56 418.046C439.003 416.805 438.762 415.794 438.738 415.054C438.715 414.388 438.866 414.07 438.979 413.924C439.052 413.871 439.318 413.728 440.011 413.758C440.789 413.792 441.842 414.043 443.099 414.562C445.686 415.686 448.741 417.819 451.776 420.854C454.704 423.782 456.849 426.938 457.98 429.547L457.984 429.559L457.99 429.57C458.547 430.813 458.787 431.824 458.812 432.552C458.836 433.283 458.646 433.524 458.592 433.578L458.564 433.606L458.537 433.636C458.505 433.67 458.292 433.871 457.517 433.845ZM435.516 419.851C436.89 423.024 439.459 426.582 442.742 429.868C445.98 433.204 449.646 435.661 452.779 437.019C454.354 437.702 455.956 438.157 457.448 438.203C458.952 438.25 460.525 437.878 461.709 436.694L461.735 436.668L461.76 436.641C462.837 435.481 463.214 433.982 463.182 432.49C463.151 431.014 462.725 429.413 462.043 427.787L462.038 427.776L462.034 427.765C460.659 424.593 458.091 421.034 454.808 417.749C451.569 414.412 447.904 411.955 444.77 410.597C443.195 409.915 441.593 409.46 440.101 409.413C438.597 409.366 437.025 409.738 435.84 410.922C434.699 412.064 434.336 413.614 434.367 415.09C434.398 416.572 434.821 418.196 435.506 419.83L435.511 419.841L435.516 419.851Z"
        fill="#C5D85A" stroke="#957336" stroke-width="4" />
    <path
        d="M458.839 550.672C458.839 546.565 456.419 543.007 452.887 541.405V306.146C456.437 304.603 458.839 301.029 458.839 296.944C458.839 291.439 454.407 286.88 448.775 286.88C443.143 286.88 438.711 291.439 438.711 296.944C438.711 301.029 441.113 304.603 444.663 306.146V541.405C441.13 543.007 438.711 546.565 438.711 550.672C438.711 556.177 443.143 560.736 448.775 560.736C454.407 560.736 458.839 556.177 458.839 550.672Z"
        fill="#C5D85A" stroke="#957336" stroke-width="4" />
    <defs>
        <filter id="filter0_d_273_1655" x="0.9" y="0.9" width="883.753" height="883.752"
            filterUnits="userSpaceOnUse" color-interpolation-filters="sRGB">
            <feFlood flood-opacity="0" result="BackgroundImageFix" />
            <feColorMatrix in="SourceAlpha" type="matrix"
                values="0 0 0 0 0 0 0 0 0 0 0 0 0 0 0 0 0 0 127 0" result="hardAlpha" />
            <feOffset dx="-6" dy="17" />
            <feGaussianBlur stdDeviation="13.05" />
            <feComposite in2="hardAlpha" operator="out" />
            <feColorMatrix type="matrix" values="0 0 0 0 0 0 0 0 0 0 0 0 0 0 0 0 0 0 0.25 0" />
            <feBlend mode="normal" in2="BackgroundImageFix" result="effect1_dropShadow_273_1655" />
            <feBlend mode="normal" in="SourceGraphic" in2="effect1_dropShadow_273_1655"
                result="shape" />
        </filter>
    </defs>
</svg>