<svg width="149" height="130" viewBox="0 0 149 130" fill="none" xmlns="http://www.w3.org/2000/svg">
<path d="M104.464 39.3312C104.464 39.3312 122.498 9.7065 100.598 3.22998L104.464 39.3312Z" fill="#172434"/>
<path d="M75.9902 62.378C76.0221 62.4935 76.054 62.6067 76.0881 62.7199L83.6141 72.6287H96.841L104.362 62.7222C104.397 62.609 104.428 62.4958 104.458 62.3803C104.256 61.9785 96.2561 52.5709 98.4181 40.6757L90.4164 39.9666L90.2321 39.9504L90.0455 39.9666L82.0393 40.6757C79.1741 53.8597 76.2019 61.9785 75.9902 62.378Z" fill="#CC7460"/>
<path d="M103.045 23.3459L104.945 31.326C105.232 31.4092 105.523 31.4738 105.819 31.5223C112.605 32.638 113.24 22.7707 110.621 19.6757C108.773 17.493 106.83 18.5139 105.373 20.0314C104.454 21.0315 103.678 22.1379 103.045 23.3459Z" fill="#CC7460"/>
<path d="M74.9809 24.0528L74.1161 32.22C73.8407 32.3378 73.5585 32.4417 73.2718 32.5295C66.6879 34.5274 64.7967 24.8265 66.9974 21.4127C68.5518 19.006 70.6114 19.7636 72.2477 21.0755C73.2877 21.9463 74.198 22.9372 74.9809 24.0528Z" fill="#CC7460"/>
<path d="M69.6633 30.4483C69.8021 31.8965 70.0115 33.3493 70.2755 34.7975C70.4461 35.7214 70.6464 36.6384 70.8785 37.5531C71.8002 41.1886 72.7447 44.8611 75.5234 47.515C81.7022 53.414 93.179 52.1876 98.8434 46.0691C102.466 42.1541 104.638 36.9918 105.527 31.7371C105.662 30.9403 105.769 30.1365 105.851 29.3281C106.486 23.0386 107.826 15.4257 105.814 9.4943C104.906 6.815 102.532 5.0365 99.4442 3.87701C90.9168 0.682635 76.9435 2.21861 73.4047 2.68287C73.0383 2.93463 72.6901 3.20718 72.3555 3.50052C70.7466 9.28181 69.7839 15.1716 69.4676 21.17C69.306 24.2674 69.3697 27.3602 69.6633 30.4483Z" fill="#E28B73"/>
<path d="M90.082 29.0163C90.082 29.3119 90.1162 29.596 90.1844 29.8686C90.2504 30.1411 90.346 30.3813 90.4712 30.5892C90.5941 30.7971 90.7375 30.9588 90.899 31.0719C91.0606 31.1851 91.2313 31.2406 91.4065 31.2406C91.5818 31.2406 91.7502 31.1851 91.9118 31.0719C92.0733 30.9588 92.2167 30.7971 92.3419 30.5892C92.4648 30.3813 92.5604 30.1411 92.6264 29.8686C92.6946 29.596 92.7288 29.3119 92.7288 29.0163C92.7288 28.7206 92.6946 28.4388 92.6264 28.1663C92.5604 27.8937 92.4648 27.6535 92.3419 27.4433C92.2167 27.2355 92.0733 27.0738 91.9118 26.9606C91.7502 26.8497 91.5818 26.792 91.4065 26.792C91.2313 26.792 91.0606 26.8497 90.899 26.9606C90.7375 27.0738 90.5941 27.2355 90.4712 27.4433C90.346 27.6535 90.2504 27.8937 90.1844 28.1663C90.1162 28.4388 90.082 28.7206 90.082 29.0163Z" fill="#172434"/>
<path d="M94.7626 24.1426C94.4303 23.6806 94.0207 23.3065 93.5291 23.0224C92.992 22.7059 92.414 22.5419 91.7949 22.5304C91.1645 22.5188 90.5774 22.6736 90.0312 22.9923C89.5328 23.2834 89.1232 23.6714 88.8068 24.1564C88.7386 24.2581 88.709 24.3713 88.7158 24.4937C88.7226 24.6161 88.7659 24.7246 88.8432 24.8193C88.9206 24.914 89.0185 24.9741 89.1368 25.0018C89.2552 25.0318 89.369 25.0203 89.4805 24.9718L89.5101 24.9602C89.8992 24.7755 90.2997 24.6138 90.7071 24.4729C91.053 24.3528 91.4103 24.2927 91.7767 24.295C92.15 24.3043 92.5141 24.3689 92.8691 24.489C93.2537 24.6068 93.652 24.7847 94.0935 24.9649L94.1185 24.9741C94.2596 25.0318 94.3984 25.0295 94.5373 24.9695C94.6761 24.9094 94.7739 24.8078 94.8308 24.6646C94.8991 24.4798 94.8764 24.3066 94.7626 24.1426Z" fill="#172434"/>
<path d="M74.2656 29.0163C74.2656 29.3119 74.2998 29.596 74.3658 29.8686C74.434 30.1411 74.5296 30.3813 74.6525 30.5892C74.7777 30.7971 74.9211 30.9588 75.0826 31.0719C75.2442 31.1851 75.4126 31.2406 75.5879 31.2406C75.7631 31.2406 75.9338 31.1851 76.0954 31.0719C76.2569 30.9588 76.4003 30.7971 76.5232 30.5892C76.6484 30.3813 76.744 30.1411 76.81 29.8686C76.8782 29.596 76.9101 29.3119 76.9101 29.0163C76.9101 28.7206 76.8782 28.4388 76.81 28.1663C76.744 27.8937 76.6484 27.6535 76.5232 27.4433C76.4003 27.2355 76.2569 27.0738 76.0954 26.9606C75.9338 26.8497 75.7631 26.792 75.5879 26.792C75.4126 26.792 75.2442 26.8497 75.0826 26.9606C74.9211 27.0738 74.7777 27.2355 74.6525 27.4433C74.5296 27.6535 74.434 27.8937 74.3658 28.1663C74.2998 28.4388 74.2656 28.7206 74.2656 29.0163Z" fill="#172434"/>
<path d="M72.9148 24.9718C73.354 24.7963 73.7523 24.6184 74.1392 24.496C74.4919 24.3782 74.8561 24.3136 75.2293 24.3043C75.598 24.302 75.9553 24.3621 76.3012 24.4799C76.7086 24.6231 77.1068 24.7847 77.496 24.9695L77.5233 24.9811C77.6348 25.0296 77.7486 25.0411 77.8669 25.0111C77.9853 24.9834 78.0831 24.9233 78.1605 24.8286C78.2379 24.7339 78.2811 24.6254 78.288 24.503C78.2948 24.3805 78.2675 24.2674 78.1992 24.1657C77.8829 23.6784 77.4755 23.2903 76.9748 23.0016C76.4286 22.6806 75.8415 22.5281 75.2111 22.5397C74.5921 22.5512 74.014 22.7152 73.4769 23.0316C72.9854 23.3157 72.5735 23.6899 72.2412 24.1519C72.1706 24.2535 72.1365 24.3644 72.1388 24.4868C72.1411 24.6092 72.1797 24.7201 72.2548 24.8171C72.3299 24.9141 72.4255 24.9788 72.5416 25.0111C72.6577 25.0434 72.7737 25.0388 72.8852 24.9949L72.9148 24.9718Z" fill="#172434"/>
<path d="M83.5826 44.5054H83.6236C86.6731 44.4869 88.05 43.3135 88.3049 42.3157C88.38 42.0686 88.3732 41.8261 88.2821 41.5858C88.1911 41.3433 88.0363 41.1585 87.8179 41.0269C87.6426 40.9253 86.9849 40.6481 86.243 41.4265C85.995 41.6875 85.1734 41.9785 83.619 42.0178C82.067 41.9785 81.2431 41.6875 80.9951 41.4265C80.2532 40.6481 79.5955 40.9253 79.4202 41.0269C79.2017 41.1585 79.047 41.3433 78.956 41.5835C78.8649 41.8261 78.8558 42.0686 78.9332 42.3157C79.1858 43.3089 80.5536 44.4776 83.5735 44.503L83.5826 44.5054Z" fill="#CC7460"/>
<path d="M83.5676 43.4452C84.858 43.4498 86.0551 43.1126 87.1588 42.4312C87.218 42.3897 87.2544 42.3319 87.2681 42.2603C87.2794 42.1864 87.2658 42.1194 87.2248 42.0594C87.1839 41.9993 87.127 41.9623 87.0541 41.9485C86.9836 41.9369 86.9176 41.9508 86.8584 41.9924C86.7401 42.0778 83.9431 43.9903 80.418 42.0848C80.3542 42.0524 80.2882 42.0455 80.22 42.0663C80.1494 42.0894 80.0971 42.131 80.0652 42.1956C80.0311 42.2603 80.0242 42.3296 80.0447 42.3989C80.0652 42.4682 80.1084 42.5213 80.1722 42.556C81.2304 43.1426 82.3615 43.4383 83.5676 43.4452Z" fill="#BF685A"/>
<path d="M91.9408 32.6726C90.1771 33.384 91.1193 36.4283 92.2321 37.2667C92.9923 37.8372 93.9822 37.6825 94.7082 37.1374C95.0746 36.8463 95.4 36.5161 95.6891 36.1442C96.4992 35.1602 97.232 34.1185 97.8829 33.0191C98.1856 32.5086 98.4655 31.989 98.7227 31.4531C98.8911 31.1344 98.9935 30.7948 99.0299 30.4345C99.0527 30.0788 98.9389 29.4505 98.4587 29.5452C98.1856 29.6007 97.9512 29.8848 97.76 30.0788C96.6381 31.1413 95.3386 31.885 93.8616 32.31C93.2494 32.4879 92.5781 32.4394 91.975 32.6657L91.9408 32.6726Z" fill="#CC7460"/>
<path d="M69.6641 30.4482C69.8052 31.8965 70.0145 33.3493 70.2762 34.7975C70.604 35.2594 70.9476 35.7075 71.3072 36.1418C71.5962 36.5136 71.9216 36.8462 72.288 37.1373C73.0186 37.6824 74.004 37.8371 74.7664 37.2643C75.877 36.4282 76.8191 33.3793 75.0554 32.6725L75.0281 32.6633C74.425 32.4346 73.7537 32.4716 73.1437 32.3076C71.8534 31.938 70.695 31.319 69.6641 30.4482Z" fill="#CC7460"/>
<path d="M93.0254 5.73622C93.0254 5.73622 94.1724 22.6943 105.444 23.6667C105.444 23.6667 113.637 18.0702 106.68 8.36239C100.021 -0.945868 93.0254 5.73622 93.0254 5.73622Z" fill="#313131"/>
<path d="M101.285 21.7036C101.285 21.7036 103.918 24.2651 104.542 28.2887C104.558 28.4134 104.61 28.5219 104.699 28.6097C104.788 28.6998 104.892 28.7506 105.017 28.7668C105.14 28.7829 105.256 28.7575 105.363 28.6929C105.47 28.6282 105.545 28.5358 105.591 28.418C106.588 25.9235 107.885 21.4588 106.704 17.1118L101.285 21.7036Z" fill="#172434"/>
<path d="M80.5154 37.8855C81.0661 38.4791 81.9833 38.523 82.773 38.5576C83.6719 38.5969 84.6163 38.5484 85.2513 37.8855C85.8544 37.2549 85.9249 36.4742 85.8202 35.645C85.6837 34.5802 85.3287 33.5154 84.9896 32.5038C84.7347 31.7416 84.4548 30.9863 84.1453 30.2402C83.8972 29.6489 83.508 28.4063 82.6432 28.6211C82.1471 28.7435 81.9764 29.3902 81.8012 29.8083C81.3984 30.7738 81.0343 31.7554 80.7065 32.7509C80.3993 33.6956 80.0761 34.6565 79.9487 35.645C79.8463 36.4488 79.9373 37.2526 80.4994 37.8716L80.5154 37.8855Z" fill="#CC7460"/>
<path d="M69.0214 20.874C69.1647 21.0657 69.3149 21.2528 69.4742 21.4284C70.1388 22.179 70.9239 22.7703 71.8229 23.2023C72.7241 23.6319 73.6731 23.8698 74.6676 23.9137C86.8294 24.3456 97.3071 15.7487 99.4441 4.14227C99.6034 3.27842 100.115 2.94351 100.115 2.94351C100.115 2.94351 100.693 -0.911448 82.073 0.201848C78.9961 0.379698 75.9102 1.19735 73.4045 2.94582C73.0381 3.19758 72.6899 3.47013 72.3554 3.76116C71.8024 4.23928 71.2971 4.7659 70.842 5.33871C69.4151 7.13107 68.5093 9.29068 68.0018 11.5219C67.2986 14.64 67.0164 18.1647 69.0214 20.874Z" fill="#313131"/>
<path d="M63.2375 129.125C63.7609 129.125 64.2866 129.113 64.7964 129.102L64.6986 129.689H115.005L114.914 129.125C130.785 129.261 150.464 127.254 148.914 114.361C145.264 83.9811 130.933 66.397 114.254 61.1308C110.524 59.9528 106.641 58.7379 103.259 58.2297C102.918 58.1766 102.14 58.1281 101.814 58.0842C87.7728 73.4902 77.8936 58.1974 77.4475 58.1651C76.5873 58.1166 75.7339 58.1766 74.8895 58.3429C50.8231 62.6875 39.6308 90.8387 33.823 113.957C30.6665 126.543 47.3662 129.259 63.2375 129.125Z" fill="white"/>
<path d="M89.3063 66.291C93.8283 66.291 98.3594 63.8334 102.774 58.9876C102.9 58.8582 102.993 58.7104 103.059 58.5441C103.123 58.3778 103.154 58.2046 103.15 58.0244C103.145 57.8443 103.107 57.6733 103.034 57.5094C102.961 57.3454 102.859 57.2022 102.729 57.0797C102.599 56.9573 102.451 56.8672 102.285 56.8049C102.119 56.7448 101.946 56.7171 101.769 56.7264C101.593 56.7356 101.425 56.7795 101.266 56.858C101.106 56.9365 100.967 57.0428 100.851 57.1791C96.9507 61.459 93.0659 63.6279 89.3063 63.6279H89.1834C83.9218 63.5632 80.1531 59.2163 78.9128 57.7888C78.4053 57.2045 78.1231 56.8811 77.5405 56.8372C77.2469 56.8164 76.9784 56.8857 76.7326 57.0497C76.4845 57.2114 76.3116 57.4308 76.2115 57.7103C76.1113 57.9898 76.1045 58.2716 76.191 58.558C76.2775 58.8421 76.439 59.0707 76.678 59.244C76.744 59.3179 76.851 59.438 76.9443 59.5489C78.3735 61.1957 82.7179 66.2102 89.1493 66.2933L89.3063 66.291Z" fill="#708871"/>
<path d="M88.7272 113.918C88.8296 113.918 88.9297 113.899 89.0253 113.862C104.052 108.321 118.167 110.039 118.308 110.056C118.483 110.079 118.651 110.049 118.813 109.968C118.972 109.885 119.095 109.765 119.182 109.605C119.268 109.448 119.302 109.277 119.286 109.097C119.271 108.917 119.207 108.755 119.093 108.614C113.538 101.692 110.873 83.2303 110.85 83.0525C110.832 82.9347 110.795 82.8284 110.736 82.7268C110.677 82.6252 110.6 82.5397 110.506 82.4704C110.415 82.3988 110.313 82.3503 110.201 82.3203C110.088 82.2926 109.976 82.2856 109.86 82.3018C109.746 82.318 109.639 82.3572 109.539 82.4173C109.439 82.475 109.355 82.5536 109.287 82.646C109.216 82.7407 109.166 82.8446 109.136 82.9578C109.109 83.0709 109.102 83.1864 109.118 83.3019C109.221 84.0272 111.531 100.05 116.599 108.122C112.159 107.829 100.718 107.66 88.4359 112.206C88.2356 112.28 88.0831 112.409 87.9762 112.596C87.8692 112.783 87.8351 112.982 87.8715 113.195C87.9079 113.407 88.008 113.583 88.1719 113.721C88.3335 113.86 88.5224 113.929 88.734 113.929L88.7272 113.918Z" fill="#708871"/>
<path d="M86.6232 113.029C86.6232 113.029 74.8096 114.421 69.6367 118.486L72.0491 122.067L90.8334 120.401C90.8812 117.262 89.477 114.805 86.6232 113.029Z" fill="#E28B73"/>
<path d="M129.685 109.397C129.888 109.397 130.068 109.333 130.227 109.206C130.386 109.079 130.489 108.915 130.536 108.714C130.582 108.515 130.561 108.321 130.477 108.134C130.391 107.949 130.256 107.808 130.077 107.716C126.317 105.81 123.222 107.672 123.092 107.753C122.994 107.813 122.91 107.891 122.842 107.986C122.774 108.081 122.726 108.185 122.699 108.3C122.669 108.413 122.664 108.529 122.683 108.644C122.701 108.762 122.74 108.871 122.799 108.97C122.858 109.072 122.935 109.157 123.029 109.226C123.122 109.296 123.224 109.344 123.338 109.372C123.45 109.402 123.563 109.407 123.677 109.388C123.793 109.372 123.9 109.333 123.998 109.273C124.105 109.206 126.431 107.852 129.292 109.303C129.417 109.367 129.546 109.397 129.685 109.397Z" fill="#708871"/>
<path d="M126.177 115.463C126.293 115.463 126.404 115.44 126.513 115.393C126.62 115.349 126.714 115.285 126.796 115.202C126.877 115.116 126.941 115.021 126.984 114.913C127.028 114.804 127.05 114.691 127.05 114.573C127.048 114.456 127.028 114.342 126.982 114.234C125.869 111.536 122.959 110.665 122.833 110.628C122.722 110.596 122.608 110.584 122.492 110.598C122.376 110.612 122.269 110.647 122.167 110.705C122.066 110.76 121.978 110.836 121.907 110.926C121.834 111.019 121.782 111.123 121.75 111.236C121.718 111.349 121.707 111.462 121.721 111.58C121.734 111.698 121.768 111.806 121.825 111.91C121.88 112.014 121.955 112.102 122.044 112.176C122.135 112.247 122.237 112.301 122.349 112.333C122.387 112.347 124.588 113.028 125.369 114.918C125.437 115.084 125.544 115.215 125.692 115.315C125.837 115.414 125.999 115.463 126.177 115.463Z" fill="#708871"/>
<path d="M69.3811 102.789C69.4334 102.789 69.4835 102.785 69.5359 102.775C69.6496 102.754 69.7566 102.713 69.8545 102.648C69.9523 102.586 70.0342 102.505 70.1002 102.408C70.1662 102.311 70.2118 102.207 70.2368 102.092C70.2618 101.976 70.2641 101.861 70.2436 101.745C68.3706 91.0002 71.3428 82.4842 71.3724 82.3941C71.4111 82.2856 71.427 82.1701 71.4202 82.0546C71.4134 81.9368 71.3861 81.8259 71.3383 81.722C71.2882 81.6157 71.2199 81.5233 71.1357 81.4448C71.0492 81.3663 70.9537 81.3062 70.8444 81.267C70.7375 81.2277 70.626 81.2092 70.5099 81.2138C70.3961 81.2184 70.2846 81.2462 70.1799 81.2947C70.0752 81.3432 69.9842 81.4125 69.9068 81.4979C69.8272 81.5834 69.768 81.6804 69.727 81.789C69.5996 82.1447 66.5614 90.8154 68.5231 102.052C68.5595 102.265 68.6574 102.44 68.819 102.579C68.9828 102.718 69.1694 102.787 69.3811 102.789Z" fill="#708871"/>
<path d="M10.7546 123.686H69.8045C70.0867 123.686 70.3666 123.653 70.642 123.591C70.9173 123.531 71.1836 123.439 71.4385 123.318C71.6956 123.196 71.9346 123.048 72.1576 122.875C72.3829 122.699 72.5855 122.503 72.7653 122.284C72.9473 122.064 73.1021 121.829 73.2318 121.575C73.3638 121.321 73.4639 121.055 73.5368 120.778C73.6096 120.501 73.6528 120.219 73.6642 119.935C73.6756 119.648 73.6574 119.364 73.6096 119.082L67.1509 82.1173C67.0735 81.6623 66.9188 81.2373 66.6935 80.8377C66.4659 80.4404 66.1769 80.0917 65.8309 79.796C65.4827 79.5004 65.0959 79.274 64.668 79.1169C64.2424 78.9599 63.8032 78.8813 63.3481 78.8813H4.29824C4.01604 78.8813 3.73612 78.9114 3.46075 78.9737C3.18538 79.0361 2.92139 79.1262 2.66423 79.2486C2.40934 79.3687 2.17038 79.5165 1.94508 79.6921C1.72205 79.8653 1.51951 80.0616 1.33972 80.2811C1.15766 80.5005 1.0029 80.7384 0.870906 80.9925C0.741186 81.2465 0.641051 81.5121 0.568226 81.787C0.495401 82.0642 0.452161 82.346 0.440782 82.6324C0.429404 82.9188 0.44761 83.2006 0.495401 83.4847L6.95181 120.45C7.03146 120.905 7.18394 121.33 7.41152 121.727C7.63909 122.127 7.92584 122.473 8.27404 122.769C8.62223 123.064 9.00912 123.291 9.43469 123.448C9.86026 123.607 10.3018 123.686 10.7546 123.686Z" fill="#172434"/>
<path d="M100.214 118.486H48.6033C48.4076 118.486 48.2187 118.525 48.0389 118.599C47.8591 118.675 47.6998 118.784 47.5633 118.925C47.4244 119.064 47.3175 119.225 47.2424 119.408C47.1695 119.59 47.1309 119.782 47.1309 119.98V122.191C47.1309 122.39 47.1695 122.579 47.2424 122.764C47.3175 122.946 47.4244 123.108 47.5633 123.246C47.6998 123.387 47.8591 123.496 48.0389 123.57C48.2187 123.646 48.4076 123.685 48.6033 123.685H100.214C100.409 123.685 100.596 123.646 100.776 123.57C100.955 123.496 101.115 123.387 101.254 123.246C101.392 123.108 101.497 122.946 101.572 122.764C101.647 122.579 101.684 122.39 101.684 122.191V119.98C101.684 119.782 101.647 119.59 101.572 119.408C101.497 119.225 101.392 119.064 101.254 118.925C101.115 118.784 100.955 118.675 100.776 118.599C100.596 118.525 100.409 118.486 100.214 118.486Z" fill="#172434"/>
<path d="M69.6359 121.288C69.686 121.288 69.736 121.283 69.7884 121.276C69.9022 121.256 70.0069 121.214 70.1047 121.149C70.2026 121.087 70.2845 121.008 70.3528 120.911C70.4188 120.814 70.4643 120.708 70.4893 120.595C70.5144 120.48 70.5166 120.364 70.4984 120.249L64.1217 83.2465C64.1012 83.131 64.0602 83.0225 63.9988 82.9231C63.9351 82.8238 63.8577 82.7407 63.7621 82.6714C63.6665 82.6044 63.5641 82.5582 63.4503 82.5305C63.3365 82.5051 63.2227 82.5028 63.109 82.5236C62.9929 82.5443 62.8882 82.5859 62.7881 82.6483C62.6902 82.7106 62.6083 82.7915 62.5423 82.8885C62.474 82.9855 62.4285 83.0894 62.4035 83.2049C62.3784 83.3204 62.3762 83.4359 62.3966 83.5514L68.7734 120.56C68.8121 120.771 68.9122 120.946 69.0738 121.082C69.2377 121.219 69.4243 121.288 69.6359 121.288Z" fill="#364351"/>
<path d="M32.3906 101.283C32.3906 101.595 32.4202 101.902 32.4817 102.207C32.5408 102.512 32.6296 102.808 32.7456 103.094C32.864 103.38 33.0074 103.653 33.178 103.912C33.3465 104.17 33.5399 104.411 33.7561 104.63C33.9746 104.849 34.209 105.046 34.4639 105.219C34.7188 105.39 34.9873 105.538 35.2695 105.656C35.554 105.776 35.8453 105.863 36.1457 105.926C36.4461 105.986 36.7488 106.016 37.0537 106.016C37.3609 106.016 37.6636 105.986 37.964 105.926C38.2644 105.863 38.5557 105.776 38.8402 105.656C39.1224 105.538 39.3909 105.39 39.6458 105.219C39.9007 105.046 40.1351 104.849 40.3536 104.63C40.5698 104.411 40.7632 104.17 40.9317 103.912C41.1023 103.653 41.2457 103.38 41.3641 103.094C41.4801 102.808 41.5689 102.512 41.628 102.207C41.6895 101.902 41.7191 101.595 41.7191 101.283C41.7191 100.971 41.6895 100.664 41.628 100.359C41.5689 100.054 41.4801 99.7588 41.3641 99.4724C41.2457 99.186 41.1023 98.9111 40.9317 98.6547C40.7632 98.396 40.5698 98.1558 40.3536 97.9364C40.1351 97.717 39.9007 97.5206 39.6458 97.3474C39.3909 97.1765 39.1224 97.0287 38.8402 96.9109C38.5557 96.7908 38.2644 96.703 37.964 96.6406C37.6636 96.5806 37.3609 96.5505 37.0537 96.5505C36.7488 96.5505 36.4461 96.5806 36.1457 96.6406C35.8453 96.703 35.554 96.7908 35.2695 96.9109C34.9873 97.0287 34.7188 97.1765 34.4639 97.3474C34.209 97.5206 33.9746 97.717 33.7561 97.9364C33.5399 98.1558 33.3465 98.396 33.178 98.6547C33.0074 98.9111 32.864 99.186 32.7456 99.4724C32.6296 99.7588 32.5408 100.054 32.4817 100.359C32.4202 100.664 32.3906 100.971 32.3906 101.283Z" fill="#364351"/>
<path d="M74.8944 21.0913C75.7751 21.0867 76.6399 20.9666 77.4911 20.7379C79.0454 20.3106 80.5019 19.6639 81.8651 18.7954C81.9653 18.7261 82.029 18.6337 82.0517 18.5136C82.0768 18.3935 82.054 18.2827 81.988 18.1787C81.922 18.0771 81.8287 18.0147 81.7104 17.9893C81.592 17.9662 81.4828 17.987 81.3827 18.054C81.3098 18.1025 74.2003 22.7913 70.4088 18.1418C70.3314 18.0471 70.2336 17.9939 70.113 17.9824C69.9924 17.9709 69.8854 18.0055 69.7921 18.0817C69.6988 18.1602 69.6464 18.2619 69.6351 18.382C69.6237 18.5044 69.6555 18.613 69.7329 18.7077C71.0187 20.2852 72.7825 21.0913 74.8944 21.0913Z" fill="#131A21"/>
<path d="M104.235 19.6502C104.356 19.6571 104.461 19.6224 104.552 19.5393C104.643 19.4584 104.693 19.3568 104.7 19.2344C104.707 19.112 104.672 19.0057 104.593 18.9133C104.513 18.821 104.413 18.7701 104.292 18.7632C99.6065 18.1465 98.2001 9.32561 98.1864 9.23784C98.1705 9.11311 98.1136 9.01379 98.0158 8.93757C97.9179 8.86366 97.8087 8.83594 97.6858 8.85442C97.5652 8.8729 97.4673 8.93295 97.3967 9.03458C97.3239 9.13621 97.3012 9.24939 97.3216 9.3718C97.3808 9.76215 98.8464 18.9434 104.179 19.6432C104.197 19.6478 104.215 19.6502 104.235 19.6502Z" fill="#131A21"/>
</svg>
